/* XPM */
static char * x[] = {
"15 15 64 1",
" 	c None",
".	c #860809",
"+	c #740D13",
"@	c #940E0B",
"#	c #7F1A20",
"$	c #A21414",
"%	c #7F252B",
"&	c #9F2825",
"*	c #B22725",
"=	c #8E3138",
"-	c #B82D29",
";	c #B5332C",
">	c #BE3D36",
",	c #934E54",
"'	c #C6433B",
")	c #C34941",
"!	c #CE4B42",
"~	c #A75558",
"{	c #BF514C",
"]	c #D04D49",
"^	c #985D61",
"/	c #CD5249",
"(	c #A76264",
"_	c #D85B52",
":	c #A46A6E",
"<	c #DA5D59",
"[	c #DA645C",
"}	c #C26C6B",
"|	c #D8695E",
"1	c #AC7577",
"2	c #E06961",
"3	c #B77676",
"4	c #DE6E62",
"5	c #E2726C",
"6	c #CD7C78",
"7	c #E0786E",
"8	c #C97F7B",
"9	c #E47B71",
"0	c #E67E79",
"a	c #E58174",
"b	c #C68C8E",
"c	c #D48985",
"d	c #E7857D",
"e	c #DD8A82",
"f	c #E88C82",
"g	c #EA8F8A",
"h	c #EB968E",
"i	c #D99D99",
"j	c #EF9A92",
"k	c #EFA096",
"l	c #DDA6A0",
"m	c #D9A7A6",
"n	c #F0A39E",
"o	c #F1ABA3",
"p	c #F3B3A9",
"q	c #F6B7B3",
"r	c #D8CED5",
"s	c #DFDAD8",
"t	c #E6E0DF",
"u	c #EFF2EE",
"v	c #F1F6F9",
"w	c #F7FDFF",
"x	c #F2FFFF",
"y	c #FEFFFC",
"     mc66m     ",
"   lehhf0|{b   ",
"  ihnokjgd4)3  ",
" lhopponhd7[>3 ",
" ekopqonhd92/& ",
"mdkoppokhd92/*1",
"8fjnoonjgd5[/-=",
"}0ghkkjgd95[]-#",
"}5dffgfd952_'*%",
"b[79da0952_]>$:",
" {[455522_]'*. ",
" 3'<[[<<_!>;@^ ",
"  ~;!]]!'>-@,  ",
"   (&*--*$.,   ",
"     :%+%^     "};
