/* XPM */
static char * x[] = {
"16 16 65 1",
" 	c None",
".	c #752724",
"+	c #762825",
"@	c #7D2827",
"#	c #812B2A",
"$	c #882B2D",
"%	c #892C2E",
"&	c #8A2D2F",
"*	c #932D2E",
"=	c #8C2F30",
"-	c #942E2F",
";	c #8F302D",
">	c #952F2F",
",	c #9A3333",
"'	c #9D3635",
")	c #A33538",
"!	c #A83835",
"~	c #A93A37",
"{	c #B03939",
"]	c #B23A3A",
"^	c #B33B3B",
"/	c #B43C3C",
"(	c #BB3B3F",
"_	c #B53D3D",
":	c #BC3C40",
"<	c #BD3D41",
"[	c #C03F43",
"}	c #C14143",
"|	c #BF4644",
"1	c #C04745",
"2	c #C14846",
"3	c #C24947",
"4	c #C34A48",
"5	c #C44B4E",
"6	c #C54C4F",
"7	c #C25150",
"8	c #C45251",
"9	c #C55352",
"0	c #C65452",
"a	c #C75553",
"b	c #C85654",
"c	c #C85D5D",
"d	c #C95E5E",
"e	c #CB5F5F",
"f	c #CC6060",
"g	c #CE6262",
"h	c #CA6768",
"i	c #CC6869",
"j	c #CD696A",
"k	c #CE6A6B",
"l	c #CF6B6D",
"m	c #CD6F6E",
"n	c #D07170",
"o	c #D17271",
"p	c #D0797A",
"q	c #D27B7C",
"r	c #D37C7D",
"s	c #D38280",
"t	c #D58482",
"u	c #D88F90",
"v	c #E29F9D",
"w	c #E4A8AA",
"x	c #E6B1B0",
"y	c #E8B3B2",
"z	c #FFFCFA",
" zzzzzzzzzzzzzz ",
"zxpkdb9674|}/)sz",
"zpvuqokjgec91{%z",
"zkutnjfyz861}^;z",
"zfroic9zzz__/{-z",
"zamkdb6|zzz{/]>z",
"z9igc94|:zzz^]>z",
"z2dzzzzzzzzzz^-z",
"z|azzzzzzzzzz/-z",
"z(7aa0865zzz}/;z",
"z^189977zzz3|/&z",
"z!<2655zzz75}{%z",
"z'^:}}|wz321:!#z",
"z*)~{{^/___^~,.z",
"zq@#$$%%=&&$#+nz",
" zzzzzzzzzzzzzz "};
