/* XPM */
static char * x[] = {
"16 16 90 1",
" 	c None",
".	c #0330BA",
"+	c #032FB8",
"@	c #335BD2",
"#	c #6E91F1",
"$	c #7698F6",
"%	c #7698F5",
"&	c #7597F5",
"*	c #7496F5",
"=	c #6B8EF0",
"-	c #3159D1",
";	c #032DB5",
">	c #6C8FF0",
",	c #5F81E7",
"'	c #5072D8",
")	c #587AE0",
"!	c #6588EB",
"~	c #032CB2",
"{	c #6E90EF",
"]	c #5779DF",
"^	c #4A6CD2",
"/	c #FFFFFF",
"(	c #6587E8",
"_	c #032AAF",
":	c #688AE8",
"<	c #4E70D6",
"[	c #496BD1",
"}	c #C8D1EA",
"|	c #5C7EE0",
"1	c #0227AB",
"2	c #6082E2",
"3	c #4769CF",
"4	c #4264CA",
"5	c #2F51B8",
"6	c #BFC7E1",
"7	c #E7E7E7",
"8	c #E1E1E1",
"9	c #2446AD",
"0	c #274AB0",
"a	c #3C5FC2",
"b	c #0225A7",
"c	c #5B7DDD",
"d	c #4466CC",
"e	c #F8F8F8",
"f	c #D5D5D5",
"g	c #D7D7D7",
"h	c #DCDCDC",
"i	c #E0E0E0",
"j	c #E4E4E4",
"k	c #E8E8E8",
"l	c #264AB4",
"m	c #3255BD",
"n	c #0223A3",
"o	c #5779DA",
"p	c #3B5FC8",
"q	c #D4D4D4",
"r	c #D3D3D3",
"s	c #ECECEC",
"t	c #2A50BE",
"u	c #3156C3",
"v	c #02209F",
"w	c #4B6FD8",
"x	c #3059CB",
"y	c #294FBC",
"z	c #B4BDD6",
"A	c #2F58CB",
"B	c #325BCC",
"C	c #021E9B",
"D	c #426CDE",
"E	c #3560D8",
"F	c #325CD2",
"G	c #B9C3E1",
"H	c #2C53C3",
"I	c #021B96",
"J	c #426EE8",
"K	c #3A67E5",
"L	c #345FD7",
"M	c #2F57C9",
"N	c #021790",
"O	c #3C69E7",
"P	c #3E6FF1",
"Q	c #315ACF",
"R	c #3865E6",
"S	c #010E80",
"T	c #1A33AB",
"U	c #3C69EC",
"V	c #4274FA",
"W	c #3B69EC",
"X	c #1832AB",
"Y	c #000572",
"                ",
"  ............  ",
" +@#$$$$%&&*=-+ ",
" ;>,,,,'),,,,!; ",
" ~{]]]^//]]]](~ ",
" _:<<<[}//<<<|_ ",
" 123334567890a1 ",
" bcde8fghijklmb ",
" nopqrghijkstun ",
" vwxyyyyzksyABv ",
" CDEEEFGksHEEEC ",
" IJKKKLksMKKKKI ",
" NOPPPPQQPPPPRN ",
" STUVVVVVVVVWXS ",
"  YYYYYYYYYYYY  ",
"                "};
