/* XPM */
static char * x[] = {
"16 16 82 1",
" 	c None",
".	c #F7F7F7",
"+	c #FCFCFC",
"@	c #EFEFEF",
"#	c #D8D8D8",
"$	c #E9F5E9",
"%	c #3AA638",
"&	c #3DA73B",
"*	c #F4FAF4",
"=	c #EBEBEB",
"-	c #9ED39D",
";	c #038D00",
">	c #249C21",
",	c #F1F9F1",
"'	c #E3E3E3",
")	c #C8C8C8",
"!	c #DEF0DE",
"~	c #0E920B",
"{	c #279D24",
"]	c #EAF6EA",
"^	c #DEDEDE",
"/	c #F2F2F2",
"(	c #F8F8F8",
"_	c #F4F4F4",
":	c #E8E8E8",
"<	c #FDFDFD",
"[	c #199716",
"}	c #2C9F29",
"|	c #ECF7EC",
"1	c #DDDDDD",
"2	c #FFFFFF",
"3	c #4EB752",
"4	c #5CBD60",
"5	c #61BF65",
"6	c #73C676",
"7	c #82CD85",
"8	c #28A82D",
"9	c #039909",
"0	c #2CA931",
"a	c #E3F4E4",
"b	c #E6E6E6",
"c	c #02AB16",
"d	c #19B32B",
"e	c #FBFBFB",
"f	c #01BB22",
"g	c #19C137",
"h	c #FAFAFA",
"i	c #50D96D",
"j	c #61DD7B",
"k	c #65DE7E",
"l	c #76E18C",
"m	c #83E498",
"n	c #25D049",
"o	c #01C82B",
"p	c #2ED250",
"q	c #EBFBEE",
"r	c #D6D6D6",
"s	c #F1F1F1",
"t	c #E1E1E1",
"u	c #D3D3D3",
"v	c #F1FDF4",
"w	c #17D745",
"x	c #00D333",
"y	c #2ADA55",
"z	c #F0FCF3",
"A	c #BEBEBE",
"B	c #E1FBE8",
"C	c #17DE4B",
"D	c #00DB39",
"E	c #2AE15A",
"F	c #EBFCEF",
"G	c #9CF1B2",
"H	c #25E056",
"I	c #EEFDF2",
"J	c #BFBFBF",
"K	c #C1C1C1",
"L	c #E6FBEC",
"M	c #3CE368",
"N	c #3EE469",
"O	c #ECFCF0",
"P	c #CACACA",
"Q	c #C5C5C5",
"                ",
"      .++@      ",
"     #$%&*=     ",
"     .-;;>,'    ",
"     )!~;;{]^   ",
"  /+(_:<[;;}|1  ",
" +23456789990ab ",
" 2cccccccccccde ",
" 2fffffffffffgh ",
" .2ijklmnooopqr ",
"  #sbtuvwxxyzA  ",
"      BCDDEFA   ",
"     'GDDHIJ    ",
"     KLMNOP     ",
"      :._Q      ",
"                "};
