/* XPM */
static char * x[] = {
"16 16 65 1",
" 	c None",
".	c #813F00",
"+	c #854200",
"@	c #894603",
"#	c #8C4700",
"$	c #8D4800",
"%	c #944900",
"&	c #984B03",
"*	c #994C04",
"=	c #A05200",
"-	c #A75205",
";	c #AC5600",
">	c #B05902",
",	c #B25B04",
"'	c #A95F18",
")	c #B65E00",
"!	c #BF5F02",
"~	c #C16105",
"{	c #AF7033",
"]	c #C26D1A",
"^	c #C87220",
"/	c #CA7418",
"(	c #B47A3A",
"_	c #CC894B",
":	c #CA965F",
"<	c #D39E66",
"[	c #D29E6C",
"}	c #D39F6D",
"|	c #D6A068",
"1	c #D5A06E",
"2	c #D6A16F",
"3	c #D7A270",
"4	c #D3A571",
"5	c #D5A672",
"6	c #DAA673",
"7	c #DBA774",
"8	c #D7A974",
"9	c #DDA875",
"0	c #D9AB76",
"a	c #DBAD78",
"b	c #E1AC79",
"c	c #E5AD6E",
"d	c #DEAF7A",
"e	c #E5AF7C",
"f	c #E1B27D",
"g	c #E3B47F",
"h	c #E5B580",
"i	c #E6B681",
"j	c #E8B883",
"k	c #EABB85",
"l	c #EEBE88",
"m	c #EFBF89",
"n	c #F0C08B",
"o	c #F1C18C",
"p	c #F4C38E",
"q	c #F1C790",
"r	c #F7C691",
"s	c #F2C891",
"t	c #F4CC9A",
"u	c #F8CF9D",
"v	c #F9D09E",
"w	c #FAD19F",
"x	c #FBD2A0",
"y	c #FFD6A3",
"z	c #FDDBA6",
"                ",
"       ~~       ",
"      /yz!      ",
"     ^wv^       ",
"    ]qi'=>))))) ",
"  >]nootxxxxxxs>",
" >cojhdiun***** ",
" ;ohd81atttn;   ",
" -nfa5}0r|%%%   ",
" =kd04}8ppp_    ",
" &<b73[6n(@@    ",
"  ${:2}9nne$    ",
"    +++++++     ",
"                ",
"                ",
"                "};
