/* XPM */
static char * x[] = {
"16 16 71 1",
" 	c None",
".	c #6587ED",
"+	c #5D7FE4",
"@	c #92A9EE",
"#	c #EAEFFC",
"$	c #FFFFFF",
"%	c #5274D9",
"&	c #E8ECF9",
"*	c #FBFBFB",
"=	c #E7EBF8",
"-	c #4567CC",
";	c #F7F7F7",
">	c #3B5DC1",
",	c #FAFAFA",
"'	c #395BBE",
")	c #F9F9F9",
"!	c #F3F3F3",
"~	c #5F79C3",
"{	c #2D4FB3",
"]	c #F6F6F6",
"^	c #2E50B4",
"/	c #F0F0F0",
"(	c #EBEBEB",
"_	c #E0E0E0",
":	c #4F68B4",
"<	c #2446AB",
"[	c #CECECE",
"}	c #D1D1D2",
"|	c #DDDDDE",
"1	c #2648AC",
"2	c #F4F4F4",
"3	c #EEEEEE",
"4	c #2244AD",
"5	c #D0D0D2",
"6	c #D6D6D7",
"7	c #2244AB",
"8	c #E5E5E7",
"9	c #2648B7",
"0	c #D4D4D8",
"a	c #D8D8DB",
"b	c #2345AF",
"c	c #EAEAED",
"d	c #DADAE1",
"e	c #EDEDF1",
"f	c #637CD5",
"g	c #2E50C5",
"h	c #E3E3E9",
"i	c #D9D9E0",
"j	c #DBDBE1",
"k	c #2749B8",
"l	c #E4E4EB",
"m	c #DFDFE7",
"n	c #617BDB",
"o	c #3759D6",
"p	c #E7E7EE",
"q	c #2D4FC5",
"r	c #E7E7F1",
"s	c #E4E4EF",
"t	c #3F61E5",
"u	c #EBEBF4",
"v	c #3456D2",
"w	c #D3D7F3",
"x	c #E8E8F7",
"y	c #F4F4FC",
"z	c #D1D5F2",
"A	c #3C5EDF",
"B	c #768DE9",
"C	c #D6DAF9",
"D	c #ECECFC",
"E	c #758CE9",
"F	c #4163E9",
"                ",
"  ............  ",
" +@#$$$$$$$$#@+ ",
" %&**********=% ",
" -*;;;;>>;;;;,- ",
" ')!!!!~{{!!!]' ",
" ^]///(_:<<[}|^ ",
" 12344444444561 ",
" 7!8999999990a7 ",
" bcdeeeefgghijb ",
" klmmmmnoopmmmk ",
" qrssssttussssq ",
" vwxxxxyyxxxxzv ",
" ABCDDDDDDDDCEA ",
"  FFFFFFFFFFFF  ",
"                "};
